<svg xmlns="http://www.w3.org/2000/svg" id="canvas" viewBox="245.219 296.656 1145.491 163.827"><path d="M 344.42,308.31 C 343.76 306.90, 342.72 305.94, 340.44 305.25 C 338.16 304.56, 336.38 304.26, 333.01 304.88 C 329.65 305.49, 327.54 306.45, 323.62 308.33 C 319.70 310.20, 317.62 311.51, 313.41 314.25 C 309.20 316.98, 306.80 318.61, 302.55 322.00 C 298.31 325.39, 295.94 327.35, 292.19 331.20 C 288.44 335.05, 286.48 337.17, 283.79 341.26 C 281.11 345.36, 279.79 347.53, 278.75 351.66 C 277.70 355.80, 277.57 358.12, 278.57 361.94 C 279.57 365.76, 280.92 367.64, 283.73 370.77 C 286.55 373.90, 288.64 375.11, 292.62 377.59 C 296.61 380.07, 299.12 381.04, 303.68 383.18 C 308.23 385.31, 310.93 386.22, 315.39 388.27 C 319.85 390.33, 322.36 391.33, 325.99 393.46 C 329.62 395.58, 331.37 396.81, 333.56 398.90 C 335.74 401.00, 336.26 401.93, 336.91 403.93 C 337.56 405.93, 337.67 406.47, 336.79 408.89 C 335.90 411.30, 335.17 412.88, 332.49 416.01 C 329.80 419.15, 327.74 421.14, 323.34 424.56 C 318.94 427.99, 316.05 429.87, 310.50 433.12 C 304.95 436.38, 301.53 438.11, 295.59 440.85 C 289.64 443.58, 286.32 444.92, 280.76 446.80 C 275.21 448.67, 272.22 449.47, 267.82 450.23 C 263.42 450.98, 261.33 450.58, 258.75 450.57 C 256.17 450.55, 255.56 450.64, 254.92 450.16 C 254.27 449.67, 254.78 449.66, 255.52 448.15 C 256.26 446.64, 256.58 445.41, 258.60 442.60 C 260.63 439.78, 261.98 437.65, 265.65 434.07 C 269.32 430.49, 271.80 428.42, 276.95 424.69 C 282.09 420.97, 285.23 419.01, 291.35 415.45 C 297.47 411.88, 300.97 410.08, 307.55 406.85 C 314.14 403.62, 317.75 402.07, 324.28 399.32 C 330.82 396.57, 334.22 395.24, 340.23 393.10 C 346.24 390.95, 349.22 389.99, 354.32 388.57 C 359.41 387.16, 361.98 386.75, 365.72 386.02 C 369.47 385.29, 371.29 385.29, 373.04 384.92 C 374.78 384.55, 374.75 383.74, 374.45 384.18 C 374.15 384.62, 373.04 384.88, 371.56 387.12 C 370.08 389.35, 369.39 391.53, 367.05 395.35 C 364.72 399.18, 362.86 401.86, 359.91 406.25 C 356.95 410.65, 355.03 413.25, 352.29 417.32 C 349.54 421.40, 347.67 423.24, 346.18 426.65 C 344.69 430.05, 344.22 431.81, 344.85 434.34 C 345.47 436.87, 346.83 438.38, 349.32 439.29 C 351.81 440.21, 353.83 440.17, 357.30 438.90 C 360.77 437.63, 362.58 435.75, 366.67 432.96 C 370.76 430.18, 373.21 428.22, 377.74 424.97 C 382.27 421.72, 384.92 419.69, 389.34 416.71 C 393.76 413.73, 396.55 412.15, 399.84 410.07 C 403.13 407.98, 404.62 407.31, 405.79 406.30 C 406.95 405.29, 406.42 404.73, 405.66 405.01 C 404.91 405.29, 403.45 405.79, 402.00 407.70 C 400.56 409.60, 399.76 411.49, 398.44 414.55 C 397.13 417.61, 396.11 419.69, 395.43 422.98 C 394.74 426.28, 394.41 428.15, 395.00 431.02 C 395.60 433.88, 396.34 435.47, 398.38 437.29 C 400.43 439.11, 402.18 440.14, 405.21 440.13 C 408.24 440.13, 410.11 439.23, 413.55 437.26 C 416.99 435.29, 418.73 433.48, 422.42 430.27 C 426.11 427.06, 428.23 425.03, 431.99 421.22 C 435.75 417.40, 437.82 415.09, 441.20 411.20 C 444.57 407.30, 446.34 405.24, 448.86 401.73 C 451.38 398.22, 452.75 396.52, 453.80 393.65 C 454.84 390.79, 454.61 388.85, 454.07 387.38 C 453.54 385.91, 452.42 385.67, 451.11 386.30 C 449.81 386.94, 449.08 388.22, 447.54 390.55 C 446.00 392.89, 445.61 394.65, 443.42 397.99 C 441.23 401.34, 439.76 403.53, 436.61 407.29 C 433.46 411.04, 431.38 413.31, 427.66 416.77 C 423.94 420.24, 421.67 422.07, 418.00 424.62 C 414.33 427.17, 412.13 428.06, 409.31 429.50 C 406.50 430.95, 405.32 431.14, 403.91 431.83 C 402.51 432.52, 402.42 433.07, 402.28 432.94 C 402.14 432.81, 402.55 432.53, 403.23 431.18 C 403.90 429.83, 404.55 428.68, 405.67 426.19 C 406.79 423.70, 407.69 421.82, 408.85 418.74 C 410.00 415.65, 411.29 413.75, 411.44 410.77 C 411.59 407.78, 411.05 405.83, 409.59 403.81 C 408.14 401.80, 406.84 400.60, 404.17 400.69 C 401.50 400.78, 399.88 402.05, 396.23 404.28 C 392.59 406.52, 390.35 408.72, 385.96 411.85 C 381.58 414.98, 378.94 416.97, 374.32 419.94 C 369.70 422.91, 366.99 424.53, 362.88 426.72 C 358.77 428.91, 356.41 429.48, 353.78 430.91 C 351.14 432.33, 350.45 433.17, 349.69 433.85 C 348.94 434.54, 349.37 435.13, 350.01 434.35 C 350.64 433.57, 351.31 432.66, 352.85 429.96 C 354.39 427.26, 355.23 424.84, 357.72 420.85 C 360.21 416.87, 362.17 414.30, 365.29 410.03 C 368.41 405.77, 370.54 403.40, 373.33 399.53 C 376.12 395.67, 378.11 394.05, 379.24 390.70 C 380.37 387.35, 380.16 385.24, 378.97 382.78 C 377.78 380.33, 376.22 378.98, 373.29 378.43 C 370.36 377.87, 368.41 378.92, 364.32 380.02 C 360.23 381.11, 357.96 382.08, 352.84 383.89 C 347.72 385.71, 344.75 386.73, 338.73 389.08 C 332.70 391.43, 329.29 392.79, 322.71 395.62 C 316.12 398.45, 312.49 400.02, 305.80 403.24 C 299.11 406.46, 295.57 408.24, 289.24 411.72 C 282.92 415.20, 279.70 417.07, 274.17 420.63 C 268.64 424.18, 265.95 426.03, 261.62 429.50 C 257.28 432.98, 255.18 434.59, 252.51 438.00 C 249.84 441.42, 248.56 443.35, 248.27 446.56 C 247.97 449.78, 249.01 451.89, 251.04 454.06 C 253.06 456.23, 254.80 457.10, 258.39 457.42 C 261.97 457.73, 264.18 456.86, 268.98 455.64 C 273.78 454.41, 276.66 453.43, 282.37 451.30 C 288.07 449.18, 291.39 447.80, 297.50 445.01 C 303.60 442.22, 307.07 440.53, 312.89 437.33 C 318.71 434.13, 321.74 432.41, 326.61 429.02 C 331.49 425.62, 333.87 423.90, 337.26 420.37 C 340.65 416.83, 342.24 415.07, 343.58 411.34 C 344.92 407.62, 345.01 405.25, 343.96 401.75 C 342.91 398.25, 341.28 396.62, 338.31 393.86 C 335.34 391.09, 333.18 390.16, 329.10 387.94 C 325.02 385.72, 322.46 384.84, 317.92 382.76 C 313.38 380.69, 310.73 379.72, 306.38 377.57 C 302.03 375.41, 299.70 374.28, 296.19 371.99 C 292.69 369.70, 291.06 368.48, 288.86 366.11 C 286.66 363.73, 285.95 362.70, 285.18 360.12 C 284.41 357.53, 284.29 356.32, 285.02 353.19 C 285.75 350.07, 286.57 348.10, 288.82 344.49 C 291.08 340.89, 292.83 338.76, 296.29 335.19 C 299.76 331.62, 302.06 329.70, 306.15 326.64 C 310.24 323.58, 312.68 322.05, 316.74 319.88 C 320.81 317.70, 322.91 316.79, 326.48 315.78 C 330.06 314.77, 331.89 315.20, 334.60 314.84 C 337.32 314.49, 338.24 314.51, 340.05 314.00 C 341.87 313.50, 342.83 313.45, 343.70 312.31 C 344.57 311.17, 345.07 309.73, 344.42 308.31" style="stroke: black; fill: black;"/><path d="M 502.36,398.02 C 504.01 398.19, 505.48 397.67, 507.05 396.23 C 508.62 394.78, 509.65 393.35, 510.22 390.81 C 510.80 388.26, 510.88 386.19, 509.92 383.50 C 508.97 380.82, 507.85 379.24, 505.46 377.40 C 503.06 375.55, 501.35 374.43, 497.94 374.29 C 494.54 374.14, 492.47 374.98, 488.44 376.65 C 484.41 378.33, 482.16 379.69, 477.77 382.66 C 473.38 385.64, 470.84 387.66, 466.49 391.53 C 462.13 395.40, 459.72 397.85, 455.98 402.01 C 452.24 406.18, 450.35 408.46, 447.79 412.35 C 445.22 416.24, 443.65 418.10, 443.16 421.44 C 442.68 424.78, 443.52 426.76, 445.36 429.04 C 447.20 431.32, 449.08 432.63, 452.36 432.86 C 455.64 433.09, 457.69 432.00, 461.74 430.17 C 465.78 428.34, 468.01 426.70, 472.56 423.70 C 477.11 420.69, 479.77 418.65, 484.49 415.15 C 489.20 411.64, 492.09 409.26, 496.14 406.17 C 500.20 403.09, 502.85 401.86, 504.77 399.72 C 506.69 397.58, 506.40 396.13, 505.74 395.46 C 505.07 394.79, 503.27 394.74, 501.45 396.38 C 499.62 398.02, 498.43 400.20, 496.60 403.66 C 494.77 407.13, 493.47 409.79, 492.31 413.71 C 491.14 417.64, 490.28 419.91, 490.77 423.30 C 491.27 426.69, 492.35 428.66, 494.77 430.65 C 497.19 432.65, 499.24 433.68, 502.89 433.26 C 506.53 432.83, 508.51 431.32, 513.01 428.52 C 517.51 425.73, 520.00 423.76, 525.39 419.28 C 530.77 414.79, 533.90 411.97, 539.95 406.09 C 546.00 400.21, 549.39 396.67, 555.64 389.87 C 561.89 383.07, 565.25 379.21, 571.21 372.09 C 577.17 364.97, 580.23 361.09, 585.45 354.26 C 590.66 347.44, 593.16 343.88, 597.29 337.95 C 601.42 332.02, 603.27 329.21, 606.09 324.62 C 608.91 320.03, 610.91 318.00, 611.38 315.00 C 611.85 312.00, 610.36 310.09, 608.42 309.61 C 606.49 309.13, 604.56 309.73, 601.71 312.61 C 598.86 315.48, 597.62 318.40, 594.18 324.00 C 590.73 329.60, 588.59 333.48, 584.48 340.61 C 580.38 347.75, 577.95 352.06, 573.66 359.68 C 569.37 367.31, 567.07 371.48, 563.02 378.73 C 558.97 385.99, 556.92 389.76, 553.40 395.94 C 549.89 402.12, 548.20 405.12, 545.43 409.63 C 542.66 414.14, 540.75 415.65, 539.57 418.48 C 538.39 421.30, 538.64 422.59, 539.52 423.77 C 540.40 424.96, 542.04 425.37, 543.96 424.41 C 545.88 423.44, 546.79 421.93, 549.11 418.94 C 551.43 415.96, 552.55 413.41, 555.58 409.48 C 558.61 405.55, 560.57 403.04, 564.27 399.29 C 567.97 395.54, 570.25 393.60, 574.08 390.74 C 577.90 387.87, 580.07 386.61, 583.41 384.96 C 586.76 383.31, 588.58 383.25, 590.79 382.47 C 593.00 381.69, 593.63 381.27, 594.45 381.07 C 595.28 380.87, 595.19 380.89, 594.93 381.47 C 594.67 382.05, 593.99 382.32, 593.14 383.98 C 592.28 385.63, 592.03 386.96, 590.67 389.73 C 589.30 392.51, 588.41 394.52, 586.29 397.85 C 584.17 401.18, 582.66 403.18, 580.08 406.40 C 577.49 409.62, 575.91 411.26, 573.35 413.96 C 570.78 416.66, 568.97 417.56, 567.26 419.90 C 565.56 422.24, 565.08 423.51, 564.82 425.66 C 564.56 427.81, 564.85 428.98, 565.98 430.66 C 567.10 432.33, 568.18 433.33, 570.44 434.05 C 572.69 434.76, 574.31 435.08, 577.24 434.24 C 580.16 433.40, 581.57 431.77, 585.06 429.84 C 588.55 427.90, 590.57 426.81, 594.68 424.55 C 598.78 422.30, 601.13 421.05, 605.59 418.57 C 610.06 416.09, 612.45 414.73, 616.99 412.15 C 621.53 409.58, 623.91 408.21, 628.30 405.70 C 632.69 403.20, 634.92 401.88, 638.95 399.64 C 642.98 397.39, 644.95 396.23, 648.45 394.47 C 651.96 392.72, 653.74 392.07, 656.48 390.86 C 659.23 389.66, 660.41 389.17, 662.20 388.45 C 663.99 387.73, 664.52 387.39, 665.43 387.28 C 666.34 387.16, 666.38 387.30, 666.75 387.85 C 667.12 388.39, 667.03 388.86, 667.27 390.00 C 667.52 391.14, 667.64 391.88, 667.97 393.55 C 668.29 395.21, 668.59 396.26, 668.89 398.33 C 669.19 400.39, 669.43 401.60, 669.47 403.85 C 669.50 406.10, 669.48 407.33, 669.07 409.60 C 668.65 411.86, 668.31 413.06, 667.40 415.18 C 666.48 417.30, 665.93 418.36, 664.48 420.20 C 663.04 422.04, 662.11 422.92, 660.15 424.36 C 658.19 425.80, 656.94 426.45, 654.69 427.40 C 652.44 428.35, 651.10 428.64, 648.89 429.10 C 646.68 429.55, 645.46 429.63, 643.64 429.68 C 641.83 429.72, 640.97 429.50, 639.83 429.32 C 638.68 429.15, 638.26 429.07, 637.92 428.79 C 637.59 428.50, 637.61 428.53, 638.16 427.89 C 638.72 427.24, 639.26 427.11, 640.70 425.56 C 642.15 424.00, 642.72 422.55, 645.39 420.13 C 648.05 417.71, 649.91 416.27, 654.03 413.46 C 658.15 410.65, 660.69 409.17, 665.98 406.09 C 671.28 403.00, 674.38 401.42, 680.50 398.04 C 686.62 394.67, 689.99 392.90, 696.60 389.20 C 703.21 385.50, 706.82 383.56, 713.54 379.54 C 720.26 375.52, 723.79 373.39, 730.21 369.10 C 736.64 364.82, 739.88 362.55, 745.65 358.11 C 751.42 353.67, 754.27 351.30, 759.04 346.91 C 763.82 342.52, 765.98 340.22, 769.54 336.14 C 773.09 332.06, 774.67 330.13, 776.83 326.52 C 779.00 322.90, 780.10 321.18, 780.38 318.09 C 780.65 315.00, 779.93 313.22, 778.21 311.08 C 776.49 308.95, 774.76 307.70, 771.79 307.40 C 768.81 307.11, 766.77 307.65, 763.32 309.60 C 759.87 311.55, 758.27 313.41, 754.56 317.15 C 750.84 320.90, 748.79 323.25, 744.77 328.33 C 740.75 333.42, 738.51 336.49, 734.45 342.59 C 730.39 348.69, 728.24 352.27, 724.45 358.82 C 720.65 365.38, 718.75 369.01, 715.49 375.38 C 712.24 381.74, 710.66 385.06, 708.16 390.66 C 705.66 396.26, 704.52 398.92, 703.01 403.38 C 701.51 407.84, 700.39 409.72, 700.63 412.94 C 700.87 416.16, 701.98 417.73, 704.21 419.46 C 706.44 421.20, 708.49 422.12, 711.79 421.64 C 715.08 421.16, 716.80 419.41, 720.69 417.08 C 724.58 414.74, 726.81 412.89, 731.23 409.98 C 735.66 407.06, 738.52 405.05, 742.80 402.50 C 747.07 399.95, 749.64 398.83, 752.59 397.23 C 755.54 395.64, 756.59 395.13, 757.55 394.53 C 758.52 393.94, 758.13 393.65, 757.42 394.26 C 756.72 394.88, 755.30 395.55, 754.02 397.61 C 752.75 399.67, 751.83 401.46, 751.07 404.56 C 750.32 407.66, 749.82 409.84, 750.25 413.11 C 750.69 416.38, 751.29 418.36, 753.26 420.92 C 755.22 423.49, 756.75 425.10, 760.08 425.93 C 763.40 426.76, 765.55 426.16, 769.88 425.07 C 774.21 423.98, 776.56 422.78, 781.72 420.48 C 786.88 418.19, 789.86 416.61, 795.67 413.60 C 801.47 410.59, 804.80 408.67, 810.74 405.41 C 816.69 402.15, 819.92 400.24, 825.37 397.30 C 830.82 394.37, 833.60 392.84, 837.99 390.73 C 842.39 388.61, 844.77 388.37, 847.34 386.74 C 849.92 385.11, 850.51 384.11, 850.86 382.57 C 851.21 381.03, 850.53 380.00, 849.11 379.05 C 847.69 378.09, 846.11 377.37, 843.76 377.82 C 841.40 378.27, 840.12 379.27, 837.32 381.28 C 834.52 383.29, 833.02 385.08, 829.73 387.88 C 826.44 390.69, 824.38 392.22, 820.87 395.31 C 817.36 398.40, 815.39 400.18, 812.19 403.33 C 809.00 406.48, 807.14 408.00, 804.88 411.04 C 802.62 414.08, 801.46 415.68, 800.91 418.53 C 800.37 421.38, 800.83 423.10, 802.15 425.30 C 803.48 427.49, 804.87 428.71, 807.55 429.51 C 810.24 430.31, 812.21 430.35, 815.57 429.31 C 818.93 428.26, 820.65 426.68, 824.35 424.27 C 828.06 421.86, 830.13 420.29, 834.09 417.26 C 838.05 414.23, 840.26 412.36, 844.16 409.11 C 848.05 405.86, 850.55 403.92, 853.56 401.00 C 856.57 398.07, 858.36 396.66, 859.21 394.49 C 860.06 392.33, 859.19 390.92, 857.80 390.17 C 856.40 389.43, 854.49 389.41, 852.26 390.77 C 850.02 392.13, 848.52 394.00, 846.60 396.99 C 844.68 399.98, 843.45 402.25, 842.68 405.73 C 841.90 409.21, 841.89 411.38, 842.75 414.41 C 843.60 417.45, 844.53 419.09, 846.96 420.92 C 849.39 422.74, 851.29 423.61, 854.89 423.55 C 858.50 423.49, 860.61 422.30, 864.99 420.60 C 869.38 418.89, 871.87 417.54, 876.82 415.02 C 881.77 412.50, 884.63 410.80, 889.73 407.99 C 894.83 405.18, 897.68 403.43, 902.33 400.98 C 906.99 398.53, 909.58 397.43, 913.00 395.74 C 916.42 394.06, 918.09 393.57, 919.44 392.57 C 920.78 391.56, 920.47 390.74, 919.73 390.73 C 918.99 390.72, 917.41 390.85, 915.73 392.52 C 914.04 394.19, 913.29 396.10, 911.32 399.08 C 909.35 402.05, 907.93 404.20, 905.89 407.40 C 903.85 410.59, 901.84 412.16, 901.13 415.05 C 900.42 417.94, 900.97 419.90, 902.36 421.83 C 903.75 423.76, 905.38 424.85, 908.06 424.70 C 910.74 424.55, 912.35 423.28, 915.78 421.07 C 919.20 418.86, 921.13 416.77, 925.20 413.66 C 929.27 410.56, 931.70 408.61, 936.13 405.53 C 940.56 402.46, 943.03 400.80, 947.36 398.28 C 951.68 395.76, 954.10 394.53, 957.74 392.95 C 961.39 391.36, 963.21 391.34, 965.58 390.35 C 967.95 389.36, 968.49 388.78, 969.59 388.00 C 970.69 387.21, 970.69 386.92, 971.09 386.42 C 971.49 385.92, 971.42 385.97, 971.58 385.49 C 971.74 385.02, 972.04 384.59, 971.89 384.05 C 971.74 383.51, 971.63 383.20, 970.82 382.79 C 970.02 382.38, 969.50 381.98, 967.85 381.99 C 966.20 382.00, 965.18 381.83, 962.57 382.84 C 959.95 383.85, 958.41 384.96, 954.77 387.04 C 951.12 389.13, 948.73 390.56, 944.35 393.27 C 939.97 395.99, 937.48 397.68, 932.86 400.60 C 928.24 403.53, 925.60 405.25, 921.25 407.89 C 916.91 410.53, 914.32 411.81, 911.15 413.83 C 907.97 415.84, 906.53 416.58, 905.37 417.96 C 904.22 419.34, 904.60 420.41, 905.39 420.71 C 906.17 421.01, 907.57 421.03, 909.28 419.45 C 910.98 417.86, 911.84 415.76, 913.93 412.78 C 916.02 409.81, 917.69 407.75, 919.74 404.58 C 921.79 401.40, 923.47 399.84, 924.18 396.90 C 924.88 393.96, 924.50 391.93, 923.27 389.88 C 922.03 387.82, 920.65 386.66, 917.99 386.64 C 915.34 386.61, 913.67 387.86, 909.99 389.74 C 906.31 391.63, 904.16 393.36, 899.59 396.04 C 895.01 398.73, 892.18 400.46, 887.11 403.15 C 882.04 405.84, 879.12 407.42, 874.24 409.51 C 869.35 411.60, 866.68 412.56, 862.70 413.60 C 858.71 414.64, 856.75 414.38, 854.31 414.72 C 851.87 415.05, 851.28 415.46, 850.51 415.28 C 849.74 415.09, 849.95 414.94, 850.47 413.79 C 850.99 412.64, 851.81 411.71, 853.10 409.54 C 854.39 407.36, 855.57 405.65, 856.94 402.93 C 858.30 400.21, 859.59 398.39, 859.93 395.93 C 860.26 393.46, 859.76 391.80, 858.61 390.60 C 857.46 389.40, 856.21 388.90, 854.16 389.93 C 852.12 390.97, 851.23 392.91, 848.39 395.77 C 845.55 398.63, 843.62 401.03, 839.98 404.24 C 836.34 407.45, 834.09 409.22, 830.19 411.84 C 826.29 414.45, 824.04 415.68, 820.48 417.30 C 816.93 418.92, 814.90 419.02, 812.42 419.94 C 809.93 420.85, 809.16 421.33, 808.05 421.88 C 806.93 422.44, 806.83 422.91, 806.84 422.71 C 806.84 422.52, 807.21 422.32, 808.08 420.91 C 808.96 419.50, 809.38 418.19, 811.19 415.65 C 813.01 413.11, 814.33 411.21, 817.17 408.22 C 820.01 405.22, 821.95 403.44, 825.39 400.68 C 828.83 397.91, 830.86 396.45, 834.37 394.41 C 837.89 392.38, 840.13 391.96, 842.98 390.50 C 845.84 389.03, 847.17 388.68, 848.67 387.08 C 850.17 385.47, 850.44 384.03, 850.48 382.49 C 850.52 380.96, 850.23 379.88, 848.87 379.42 C 847.52 378.96, 846.41 378.88, 843.71 380.18 C 841.00 381.48, 839.46 383.32, 835.33 385.92 C 831.20 388.52, 828.42 390.09, 823.07 393.18 C 817.71 396.27, 814.47 398.18, 808.55 401.37 C 802.62 404.55, 799.26 406.40, 793.45 409.12 C 787.65 411.83, 784.54 413.20, 779.52 414.93 C 774.50 416.67, 771.92 417.24, 768.36 417.81 C 764.79 418.38, 763.47 417.96, 761.69 417.78 C 759.91 417.60, 759.70 417.76, 759.44 416.91 C 759.18 416.05, 759.77 415.36, 760.40 413.50 C 761.04 411.64, 761.85 410.26, 762.61 407.60 C 763.37 404.94, 764.22 403.11, 764.21 400.20 C 764.21 397.30, 763.94 395.30, 762.57 393.07 C 761.20 390.83, 760.00 389.51, 757.37 389.04 C 754.74 388.56, 753.00 389.11, 749.41 390.70 C 745.82 392.29, 743.77 394.26, 739.42 396.98 C 735.07 399.71, 732.17 401.63, 727.68 404.31 C 723.19 406.98, 720.61 408.52, 716.97 410.36 C 713.33 412.20, 711.48 412.49, 709.48 413.51 C 707.48 414.54, 707.41 415.59, 706.98 415.48 C 706.56 415.37, 707.09 415.09, 707.36 412.98 C 707.63 410.87, 707.33 409.05, 708.33 404.93 C 709.32 400.82, 710.17 397.94, 712.33 392.40 C 714.49 386.85, 716.01 383.52, 719.13 377.21 C 722.25 370.90, 724.14 367.28, 727.92 360.85 C 731.70 354.42, 733.88 350.89, 738.02 345.04 C 742.16 339.19, 744.48 336.22, 748.65 331.61 C 752.81 326.99, 755.12 324.89, 758.86 321.96 C 762.60 319.04, 764.70 318.37, 767.36 316.98 C 770.02 315.59, 770.86 315.49, 772.14 315.00 C 773.43 314.50, 773.54 314.09, 773.79 314.50 C 774.04 314.90, 773.86 315.21, 773.39 317.02 C 772.91 318.84, 772.96 320.37, 771.43 323.58 C 769.89 326.78, 768.77 328.98, 765.71 333.03 C 762.65 337.08, 760.61 339.43, 756.13 343.84 C 751.64 348.25, 748.87 350.63, 743.27 355.07 C 737.68 359.50, 734.48 361.76, 728.15 366.02 C 721.82 370.27, 718.32 372.38, 711.63 376.33 C 704.94 380.27, 701.34 382.18, 694.70 385.75 C 688.07 389.33, 684.69 391.03, 678.46 394.20 C 672.23 397.38, 669.10 398.86, 663.57 401.63 C 658.04 404.41, 655.43 405.70, 650.83 408.09 C 646.23 410.48, 644.11 411.41, 640.56 413.58 C 637.00 415.76, 635.09 416.48, 633.06 418.96 C 631.02 421.44, 630.66 423.27, 630.39 425.98 C 630.12 428.70, 630.52 430.32, 631.72 432.55 C 632.91 434.78, 634.11 435.82, 636.37 437.15 C 638.63 438.48, 640.14 438.84, 643.02 439.19 C 645.90 439.54, 647.64 439.47, 650.75 438.92 C 653.87 438.36, 655.57 437.77, 658.61 436.42 C 661.64 435.07, 663.23 434.18, 665.93 432.17 C 668.63 430.16, 670.01 428.94, 672.12 426.38 C 674.23 423.81, 675.09 422.27, 676.49 419.34 C 677.88 416.42, 678.38 414.80, 679.10 411.74 C 679.83 408.68, 679.99 407.04, 680.12 404.04 C 680.25 401.05, 680.14 399.50, 679.76 396.77 C 679.37 394.04, 679.10 392.68, 678.19 390.38 C 677.29 388.08, 676.69 386.99, 675.23 385.26 C 673.77 383.54, 672.81 382.78, 670.89 381.77 C 668.96 380.75, 667.86 380.40, 665.62 380.20 C 663.37 380.00, 662.20 380.05, 659.67 380.75 C 657.14 381.45, 655.86 382.14, 652.96 383.72 C 650.06 385.30, 648.57 386.50, 645.16 388.65 C 641.75 390.80, 639.86 392.05, 635.92 394.48 C 631.98 396.92, 629.81 398.27, 625.47 400.81 C 621.13 403.36, 618.77 404.73, 614.23 407.21 C 609.70 409.69, 607.30 411.00, 602.79 413.21 C 598.28 415.43, 595.90 416.58, 591.69 418.29 C 587.48 420.00, 585.32 420.80, 581.74 421.76 C 578.17 422.72, 576.23 422.31, 573.81 423.11 C 571.39 423.92, 570.65 424.77, 569.65 425.79 C 568.66 426.82, 568.65 427.68, 568.83 428.24 C 569.00 428.79, 569.42 429.09, 570.52 428.57 C 571.63 428.06, 572.60 427.57, 574.35 425.67 C 576.09 423.77, 576.94 421.98, 579.24 419.07 C 581.54 416.16, 583.13 414.41, 585.86 411.10 C 588.58 407.79, 590.23 405.88, 592.87 402.52 C 595.50 399.16, 597.12 397.53, 599.03 394.30 C 600.94 391.08, 602.06 389.40, 602.42 386.39 C 602.78 383.38, 602.16 381.54, 600.83 379.26 C 599.50 376.99, 598.24 375.95, 595.76 375.03 C 593.28 374.12, 591.55 373.86, 588.43 374.70 C 585.32 375.53, 583.75 376.94, 580.16 379.21 C 576.57 381.48, 574.49 382.90, 570.48 386.05 C 566.47 389.20, 564.17 391.22, 560.10 394.97 C 556.03 398.71, 553.74 401.03, 550.13 404.77 C 546.53 408.51, 544.37 410.47, 542.06 413.68 C 539.76 416.89, 538.82 418.64, 538.63 420.80 C 538.43 422.97, 539.74 424.33, 541.09 424.50 C 542.44 424.66, 543.67 424.13, 545.38 421.62 C 547.09 419.10, 547.35 416.69, 549.63 411.92 C 551.91 407.15, 553.50 404.09, 556.80 397.79 C 560.09 391.50, 562.10 387.71, 566.10 380.45 C 570.10 373.18, 572.40 369.01, 576.80 361.48 C 581.20 353.95, 583.72 349.69, 588.10 342.80 C 592.48 335.91, 594.97 332.23, 598.72 327.03 C 602.47 321.83, 604.83 319.88, 606.85 316.83 C 608.87 313.77, 609.03 312.55, 608.80 311.77 C 608.57 311.00, 607.07 310.84, 605.69 312.94 C 604.31 315.04, 604.21 317.69, 601.90 322.28 C 599.60 326.87, 598.00 329.87, 594.18 335.87 C 590.36 341.87, 587.88 345.44, 582.80 352.27 C 577.71 359.10, 574.68 362.97, 568.75 370.03 C 562.83 377.09, 559.47 380.93, 553.18 387.58 C 546.90 394.23, 543.47 397.71, 537.32 403.29 C 531.18 408.88, 527.92 411.55, 522.45 415.50 C 516.98 419.45, 514.16 421.03, 509.98 423.04 C 505.79 425.04, 503.80 424.90, 501.52 425.53 C 499.23 426.15, 499.00 426.58, 498.55 426.15 C 498.10 425.73, 498.69 425.28, 499.26 423.42 C 499.82 421.55, 500.12 419.93, 501.37 416.84 C 502.63 413.74, 504.05 411.38, 505.53 407.95 C 507.01 404.52, 508.58 402.50, 508.76 399.70 C 508.95 396.90, 508.15 395.11, 506.46 393.95 C 504.78 392.79, 503.18 392.42, 500.34 393.90 C 497.50 395.39, 496.10 398.04, 492.25 401.36 C 488.39 404.69, 485.67 407.14, 481.07 410.52 C 476.47 413.90, 473.70 415.75, 469.24 418.26 C 464.78 420.77, 462.23 421.75, 458.76 423.06 C 455.29 424.37, 453.75 424.28, 451.88 424.82 C 450.00 425.35, 449.71 426.08, 449.40 425.73 C 449.09 425.39, 449.58 425.11, 450.32 423.09 C 451.07 421.07, 451.16 419.12, 453.13 415.65 C 455.11 412.18, 456.79 409.70, 460.21 405.74 C 463.63 401.79, 466.03 399.37, 470.23 395.86 C 474.42 392.35, 477.02 390.50, 481.19 388.18 C 485.35 385.85, 487.74 385.08, 491.05 384.23 C 494.36 383.38, 495.78 383.94, 497.72 383.92 C 499.66 383.89, 500.11 383.83, 500.74 384.11 C 501.37 384.39, 501.12 384.58, 500.85 385.31 C 500.57 386.05, 499.85 386.57, 499.37 387.78 C 498.90 388.99, 498.59 389.84, 498.48 391.35 C 498.37 392.87, 498.04 394.04, 498.82 395.37 C 499.60 396.71, 500.72 397.85, 502.36 398.02" style="stroke: black; fill: black;"/><path d="M 1128.58,328.75 C 1127.29 329.15, 1126.62 329.49, 1125.61 331.51 C 1124.61 333.53, 1124.64 334.94, 1123.55 338.84 C 1122.46 342.75, 1122.10 345.51, 1120.17 351.03 C 1118.24 356.56, 1116.88 359.96, 1113.89 366.48 C 1110.90 373.00, 1108.94 376.78, 1105.20 383.65 C 1101.47 390.52, 1099.27 394.31, 1095.20 400.83 C 1091.14 407.34, 1088.87 410.74, 1084.90 416.23 C 1080.93 421.72, 1078.80 424.41, 1075.35 428.28 C 1071.91 432.15, 1069.86 433.47, 1067.66 435.58 C 1065.46 437.69, 1064.88 438.49, 1064.36 438.85 C 1063.83 439.21, 1064.85 439.15, 1065.01 437.37 C 1065.18 435.60, 1064.80 434.08, 1065.19 429.99 C 1065.58 425.91, 1065.65 422.86, 1066.96 416.95 C 1068.26 411.04, 1069.23 407.34, 1071.71 400.45 C 1074.19 393.56, 1075.79 389.74, 1079.35 382.50 C 1082.90 375.25, 1084.99 371.38, 1089.48 364.22 C 1093.97 357.06, 1096.54 353.35, 1101.80 346.71 C 1107.06 340.07, 1109.97 336.71, 1115.78 331.01 C 1121.59 325.32, 1124.76 322.57, 1130.86 318.23 C 1136.96 313.89, 1140.22 311.99, 1146.27 309.31 C 1152.32 306.62, 1155.45 305.69, 1161.10 304.80 C 1166.75 303.91, 1169.59 304.00, 1174.51 304.84 C 1179.43 305.69, 1181.76 306.64, 1185.71 309.03 C 1189.65 311.42, 1191.48 313.07, 1194.23 316.80 C 1196.98 320.52, 1198.20 322.75, 1199.45 327.65 C 1200.71 332.55, 1201.13 335.37, 1200.49 341.31 C 1199.86 347.24, 1199.09 350.61, 1196.27 357.34 C 1193.45 364.06, 1191.40 367.77, 1186.40 374.91 C 1181.41 382.05, 1178.12 385.93, 1171.27 393.03 C 1164.42 400.13, 1160.23 403.86, 1152.16 410.43 C 1144.08 417.00, 1139.40 420.35, 1130.89 425.88 C 1122.38 431.41, 1117.69 434.05, 1109.60 438.08 C 1101.51 442.10, 1097.32 443.80, 1090.43 446.02 C 1083.53 448.24, 1080.10 448.82, 1075.14 449.17 C 1070.18 449.52, 1068.11 448.75, 1065.62 447.75 C 1063.13 446.76, 1063.09 446.19, 1062.68 444.20 C 1062.26 442.22, 1062.15 441.04, 1063.53 437.83 C 1064.91 434.61, 1066.02 432.16, 1069.57 428.12 C 1073.13 424.08, 1075.75 421.59, 1081.32 417.62 C 1086.88 413.64, 1090.40 411.61, 1097.39 408.24 C 1104.37 404.88, 1108.42 403.38, 1116.23 400.80 C 1124.04 398.23, 1128.34 397.21, 1136.44 395.35 C 1144.54 393.50, 1148.76 392.85, 1156.73 391.52 C 1164.70 390.20, 1168.74 389.78, 1176.28 388.74 C 1183.82 387.71, 1187.62 387.33, 1194.43 386.36 C 1201.23 385.39, 1204.57 384.91, 1210.31 383.91 C 1216.04 382.90, 1218.68 382.39, 1223.10 381.33 C 1227.51 380.28, 1229.67 380.26, 1232.38 378.63 C 1235.10 377.01, 1235.96 375.52, 1236.67 373.20 C 1237.39 370.87, 1237.28 369.16, 1235.98 367.00 C 1234.68 364.85, 1233.15 363.20, 1230.16 362.42 C 1227.17 361.63, 1224.96 362.07, 1221.05 363.08 C 1217.13 364.09, 1214.91 365.16, 1210.60 367.46 C 1206.28 369.76, 1203.81 371.28, 1199.49 374.57 C 1195.17 377.86, 1192.74 379.92, 1188.99 383.92 C 1185.23 387.92, 1183.33 390.26, 1180.71 394.58 C 1178.10 398.90, 1176.83 401.25, 1175.92 405.53 C 1175.02 409.81, 1174.87 412.30, 1176.21 415.98 C 1177.55 419.66, 1179.20 421.65, 1182.64 423.91 C 1186.08 426.17, 1188.52 426.83, 1193.41 427.28 C 1198.31 427.74, 1201.24 427.38, 1207.13 426.18 C 1213.02 424.98, 1216.30 423.92, 1222.86 421.30 C 1229.43 418.68, 1233.02 416.97, 1239.96 413.08 C 1246.90 409.19, 1250.64 406.78, 1257.57 401.86 C 1264.49 396.94, 1268.06 394.08, 1274.60 388.48 C 1281.14 382.88, 1284.47 379.75, 1290.24 373.86 C 1296.02 367.97, 1298.78 364.74, 1303.47 359.02 C 1308.16 353.30, 1310.25 350.36, 1313.69 345.25 C 1317.13 340.13, 1318.59 337.78, 1320.67 333.45 C 1322.75 329.12, 1323.88 327.15, 1324.10 323.59 C 1324.31 320.04, 1323.61 318.10, 1321.74 315.69 C 1319.87 313.29, 1318.04 311.87, 1314.74 311.57 C 1311.44 311.27, 1309.28 312.09, 1305.25 314.21 C 1301.21 316.32, 1299.09 318.08, 1294.56 322.15 C 1290.03 326.21, 1287.45 328.91, 1282.61 334.53 C 1277.76 340.14, 1274.92 343.59, 1270.33 350.20 C 1265.74 356.81, 1263.31 360.63, 1259.64 367.58 C 1255.96 374.53, 1254.23 378.32, 1251.96 384.97 C 1249.70 391.62, 1248.85 395.00, 1248.31 400.83 C 1247.77 406.67, 1247.90 409.50, 1249.26 414.15 C 1250.61 418.81, 1251.95 421.06, 1255.09 424.13 C 1258.23 427.19, 1260.59 428.30, 1264.94 429.47 C 1269.28 430.65, 1271.99 430.59, 1276.80 430.01 C 1281.60 429.43, 1284.32 428.55, 1288.96 426.59 C 1293.60 424.64, 1296.05 423.15, 1300.01 420.25 C 1303.96 417.36, 1305.92 415.52, 1308.74 412.12 C 1311.56 408.73, 1312.96 406.82, 1314.11 403.28 C 1315.25 399.74, 1315.20 397.60, 1314.47 394.43 C 1313.75 391.26, 1312.54 389.62, 1310.47 387.45 C 1308.39 385.28, 1306.67 384.20, 1304.11 383.57 C 1301.55 382.94, 1299.61 383.08, 1297.66 384.28 C 1295.71 385.48, 1294.60 387.27, 1294.36 389.56 C 1294.13 391.84, 1294.51 393.88, 1296.47 395.71 C 1298.44 397.53, 1300.35 398.04, 1304.18 398.69 C 1308.02 399.34, 1310.55 398.98, 1315.65 398.95 C 1320.74 398.92, 1323.80 398.83, 1329.64 398.54 C 1335.48 398.25, 1338.84 397.97, 1344.86 397.49 C 1350.87 397.02, 1354.11 396.65, 1359.72 396.17 C 1365.33 395.70, 1368.43 395.50, 1372.92 395.13 C 1377.42 394.76, 1379.37 395.00, 1382.21 394.33 C 1385.05 393.66, 1386.20 392.85, 1387.11 391.79 C 1388.02 390.73, 1387.89 389.83, 1386.75 389.04 C 1385.61 388.25, 1384.33 387.83, 1381.43 387.85 C 1378.53 387.87, 1376.71 388.52, 1372.26 389.15 C 1367.81 389.77, 1364.75 390.31, 1359.20 390.96 C 1353.64 391.60, 1350.42 391.99, 1344.49 392.38 C 1338.56 392.77, 1335.21 392.98, 1329.54 392.90 C 1323.86 392.82, 1320.79 392.67, 1316.11 391.99 C 1311.42 391.32, 1309.20 390.33, 1306.10 389.53 C 1303.00 388.72, 1302.10 388.00, 1300.59 387.97 C 1299.09 387.95, 1298.87 388.66, 1298.59 389.42 C 1298.30 390.18, 1298.57 391.11, 1299.16 391.79 C 1299.76 392.48, 1300.44 392.48, 1301.57 392.86 C 1302.70 393.24, 1303.76 393.01, 1304.83 393.68 C 1305.90 394.36, 1306.56 394.78, 1306.93 396.22 C 1307.30 397.67, 1307.39 398.59, 1306.67 400.92 C 1305.96 403.25, 1305.45 405.03, 1303.35 407.88 C 1301.25 410.73, 1299.56 412.57, 1296.19 415.16 C 1292.83 417.74, 1290.55 419.10, 1286.52 420.80 C 1282.48 422.50, 1280.02 423.16, 1276.02 423.66 C 1272.01 424.17, 1269.87 424.10, 1266.49 423.33 C 1263.11 422.55, 1261.57 421.95, 1259.12 419.80 C 1256.67 417.66, 1255.49 416.33, 1254.22 412.60 C 1252.96 408.88, 1252.48 406.45, 1252.79 401.17 C 1253.10 395.90, 1253.72 392.59, 1255.76 386.23 C 1257.80 379.86, 1259.45 376.11, 1263.01 369.36 C 1266.56 362.61, 1268.97 358.85, 1273.55 352.48 C 1278.14 346.12, 1281.03 342.74, 1285.94 337.53 C 1290.85 332.32, 1293.62 329.82, 1298.11 326.44 C 1302.59 323.06, 1305.04 322.08, 1308.36 320.61 C 1311.69 319.15, 1312.99 319.40, 1314.72 319.12 C 1316.45 318.84, 1316.52 318.42, 1317.03 319.21 C 1317.54 319.99, 1317.53 320.63, 1317.28 323.07 C 1317.03 325.50, 1317.23 327.40, 1315.78 331.37 C 1314.34 335.35, 1313.11 337.87, 1310.06 342.93 C 1307.01 347.99, 1305.01 350.98, 1300.55 356.68 C 1296.09 362.38, 1293.39 365.60, 1287.76 371.44 C 1282.12 377.29, 1278.83 380.39, 1272.38 385.89 C 1265.94 391.40, 1262.39 394.20, 1255.53 398.96 C 1248.68 403.72, 1244.96 406.05, 1238.11 409.69 C 1231.26 413.32, 1227.68 414.88, 1221.30 417.14 C 1214.92 419.39, 1211.65 420.17, 1206.21 420.96 C 1200.78 421.74, 1198.09 421.62, 1194.13 421.06 C 1190.17 420.49, 1188.71 419.63, 1186.42 418.14 C 1184.14 416.64, 1183.54 415.86, 1182.70 413.60 C 1181.86 411.33, 1181.60 410.02, 1182.23 406.82 C 1182.85 403.62, 1183.63 401.40, 1185.82 397.61 C 1188.01 393.82, 1189.73 391.50, 1193.18 387.88 C 1196.63 384.27, 1198.99 382.31, 1203.07 379.52 C 1207.15 376.72, 1209.63 375.43, 1213.57 373.92 C 1217.52 372.41, 1219.72 372.34, 1222.79 371.98 C 1225.86 371.62, 1227.09 372.30, 1228.93 372.13 C 1230.78 371.96, 1231.37 371.38, 1232.02 371.11 C 1232.67 370.83, 1232.82 370.56, 1232.17 370.75 C 1231.52 370.94, 1230.93 371.02, 1228.79 372.05 C 1226.64 373.08, 1225.32 374.43, 1221.44 375.90 C 1217.56 377.38, 1214.91 378.11, 1209.38 379.42 C 1203.86 380.73, 1200.54 381.30, 1193.81 382.44 C 1187.09 383.59, 1183.29 384.03, 1175.76 385.16 C 1168.23 386.29, 1164.17 386.75, 1156.16 388.12 C 1148.14 389.49, 1143.88 390.15, 1135.68 392.01 C 1127.48 393.87, 1123.12 394.88, 1115.14 397.42 C 1107.15 399.97, 1103.02 401.43, 1095.74 404.72 C 1088.47 408.02, 1084.80 409.95, 1078.77 413.88 C 1072.73 417.82, 1069.78 420.09, 1065.57 424.39 C 1061.37 428.70, 1059.53 431.08, 1057.74 435.39 C 1055.96 439.71, 1055.45 442.47, 1056.62 445.96 C 1057.79 449.45, 1059.81 451.32, 1063.60 452.83 C 1067.39 454.33, 1069.98 454.20, 1075.57 453.50 C 1081.16 452.80, 1084.48 451.88, 1091.56 449.34 C 1098.64 446.79, 1102.80 445.00, 1110.97 440.79 C 1119.15 436.57, 1123.85 433.89, 1132.44 428.26 C 1141.04 422.63, 1145.75 419.27, 1153.95 412.65 C 1162.16 406.03, 1166.41 402.31, 1173.45 395.15 C 1180.49 388.00, 1183.89 384.14, 1189.17 376.89 C 1194.45 369.63, 1196.69 365.89, 1199.84 358.89 C 1202.99 351.88, 1204.03 348.33, 1204.92 341.85 C 1205.80 335.37, 1205.56 332.11, 1204.26 326.48 C 1202.96 320.86, 1201.59 318.10, 1198.40 313.74 C 1195.20 309.38, 1192.92 307.39, 1188.29 304.69 C 1183.66 301.98, 1180.83 301.02, 1175.25 300.20 C 1169.67 299.38, 1166.50 299.47, 1160.38 300.59 C 1154.27 301.71, 1150.99 302.84, 1144.66 305.78 C 1138.34 308.73, 1135.02 310.77, 1128.77 315.33 C 1122.52 319.89, 1119.32 322.73, 1113.40 328.59 C 1107.48 334.45, 1104.54 337.87, 1099.17 344.63 C 1093.81 351.39, 1091.21 355.14, 1086.58 362.38 C 1081.95 369.62, 1079.81 373.52, 1076.03 380.83 C 1072.25 388.13, 1070.56 391.95, 1067.68 398.89 C 1064.81 405.83, 1063.54 409.48, 1061.65 415.54 C 1059.77 421.60, 1058.89 424.50, 1058.25 429.18 C 1057.62 433.85, 1057.22 436.10, 1058.46 438.91 C 1059.70 441.72, 1061.80 442.94, 1064.47 443.22 C 1067.13 443.50, 1068.85 442.67, 1071.78 440.30 C 1074.71 437.93, 1075.82 435.71, 1079.11 431.37 C 1082.41 427.02, 1084.39 424.29, 1088.26 418.59 C 1092.13 412.88, 1094.39 409.45, 1098.47 402.85 C 1102.55 396.25, 1104.77 392.45, 1108.67 385.57 C 1112.56 378.69, 1114.59 374.93, 1117.95 368.46 C 1121.31 362.00, 1122.89 358.65, 1125.48 353.23 C 1128.07 347.81, 1129.31 345.27, 1130.90 341.37 C 1132.50 337.46, 1133.22 336.08, 1133.45 333.70 C 1133.67 331.33, 1133.00 330.50, 1132.03 329.51 C 1131.05 328.52, 1129.86 328.35, 1128.58 328.75" style="stroke: black; fill: black;"/></svg>